<svg preserveAspectRatio="xMidYMid meet" width="100%" height="100%" overflow="visible" style="display: block;" viewBox="0 0 145.2 48.4" fill="none" xmlns="http://www.w3.org/2000/svg">
<path id="Vector" d="M145.2 16.1333H133.1V12.1H116.967V36.3H133.1V32.2667H145.2V40.3333C145.2 44.77 141.57 48.4 137.133 48.4H112.933C108.497 48.4 104.867 44.77 104.867 40.3333V8.06667C104.867 3.63 108.497 0 112.933 0H137.133C141.57 0 145.2 3.63 145.2 8.06667V16.1333ZM40.3333 8.06667V48.4H28.2333V36.3H12.1V48.4H0V8.06667C0 3.63 3.63 0 8.06667 0H32.2667C36.7033 0 40.3333 3.63 40.3333 8.06667ZM28.2333 12.1H12.1V24.2H28.2333V12.1ZM84.7 24.2C89.1367 24.2 92.7667 27.83 92.7667 32.2667V40.3333C92.7667 44.77 89.1367 48.4 84.7 48.4H52.4333V0H84.7C89.1367 0 92.7667 3.63 92.7667 8.06667V16.1333C92.7667 20.57 89.1367 24.2 84.7 24.2ZM64.5333 12.1V18.15H80.6667V12.1H64.5333ZM80.6667 30.25H64.5333V36.3H80.6667V30.25Z" fill="var(--fill-0, black)"/>
</svg>
