<svg preserveAspectRatio="xMidYMid meet" width="100%" height="100%" overflow="visible" style="display: block;" viewBox="0 0 95 95" fill="none" xmlns="http://www.w3.org/2000/svg">
<g id="Group">
<path id="Vector" d="M47.5 91.5C71.8005 91.5 91.5 71.8005 91.5 47.5C91.5 23.1995 71.8005 3.5 47.5 3.5C23.1995 3.5 3.5 23.1995 3.5 47.5C3.5 71.8005 23.1995 91.5 47.5 91.5Z" stroke="var(--stroke-0, black)" stroke-width="7" stroke-linecap="round" stroke-linejoin="round"/>
<path id="Vector_2" d="M78.3 78.3L71.7 71.7M16.7 16.7L23.3 23.3" stroke="var(--stroke-0, black)" stroke-width="7" stroke-linecap="round" stroke-linejoin="round"/>
<g id="Vector_3">
</g>
<path id="Vector_4" d="M25.5 62.9L27.3854 56.3M27.3854 56.3L34.3 32.1L41.2146 56.3M27.3854 56.3H41.2146M43.1 62.9L41.2146 56.3M71.7 47.5C71.7 58.5 63.8196 62.9 54.1 62.9V32.1C63.8196 32.1 71.7 36.5 71.7 47.5Z" stroke="var(--stroke-0, black)" stroke-width="7" stroke-linecap="round" stroke-linejoin="round"/>
</g>
</svg>
