<svg preserveAspectRatio="xMidYMid meet" width="100%" height="100%" overflow="visible" style="display: block;" viewBox="0 0 87.9667 88.077" fill="none" xmlns="http://www.w3.org/2000/svg">
<path id="Vector" d="M87.5297 25.4307L75.5094 2.44741C74.8082 1.10679 72.9945 0.0109141 71.4834 0.0109141H43.817C43.7869 0.009625 43.7566 0.00146094 43.7264 0C43.7017 0 43.6783 0.00971094 43.6535 0.011H16.4835C14.971 0.011 13.1532 1.10412 12.4424 2.43925L0.453733 24.9796C-0.258603 26.3147 -0.115517 28.4117 0.765772 29.6423L42.0171 87.1476C42.46 87.765 43.0484 88.077 43.6355 88.077C44.2186 88.077 44.8029 87.7731 45.2484 87.1668L87.1777 30.0823C88.07 28.8626 88.2309 26.77 87.5297 25.4307ZM80.9681 24.7567H66.2336L72.1337 7.8607L80.9681 24.7567ZM49.4269 5.51083H67.1273L61.6369 21.2312L49.4269 5.51083ZM57.4101 24.7567H31.8311L43.9201 7.38908L57.4101 24.7567ZM26.9581 22.1318L21.4429 5.51083H38.5286L26.9581 22.1318ZM58.4854 30.2567L43.7014 72.5847L29.6544 30.2567H58.4854ZM37.5317 71.46L7.97473 30.2567H23.8587L37.5317 71.46ZM64.3112 30.2567H80.2241L49.8902 71.5548L64.3112 30.2567ZM16.1807 7.12095L22.0327 24.7567H6.80048L16.1807 7.12095Z" fill="var(--fill-0, black)"/>
</svg>
