<svg preserveAspectRatio="xMidYMid meet" width="100%" height="100%" overflow="visible" style="display: block;" viewBox="0 0 76.3132 76.5332" fill="none" xmlns="http://www.w3.org/2000/svg">
<g id="Group">
<path id="Vector" d="M8.25005 30.25C8.25005 36.0848 10.5679 41.6805 14.6937 45.8063C18.8195 49.9321 24.4153 52.25 30.2501 52.25C36.0848 52.25 41.6806 49.9321 45.8064 45.8063C49.9322 41.6805 52.2501 36.0848 52.2501 30.25C52.2501 24.4152 49.9322 18.8194 45.8064 14.6936C41.6806 10.5678 36.0848 8.24999 30.2501 8.24999C24.4153 8.24999 18.8195 10.5678 14.6937 14.6936C10.5679 18.8194 8.25005 24.4152 8.25005 30.25ZM42.2071 18.513C43.7251 21.1447 43.3593 24.2 41.3848 25.3385C39.4131 26.477 36.5806 25.2697 35.0626 22.638C33.5446 20.0062 33.9131 16.951 35.8848 15.8125C37.8593 14.674 40.6891 15.8812 42.2098 18.513" fill="var(--fill-0, black)"/>
<path id="Vector_2" d="M0 30.25C0 46.9562 13.5438 60.5 30.25 60.5C36.5613 60.5 42.4215 58.5667 47.2725 55.2612C46.886 56.9612 46.9368 58.7315 47.4201 60.4065C47.9034 62.0816 48.8035 63.6067 50.0362 64.8395L58.7868 73.59C60.7276 75.4899 63.3396 76.5475 66.0556 76.5331C68.7716 76.5186 71.3722 75.4333 73.2927 73.5127C75.2133 71.5922 76.2986 68.9916 76.3131 66.2756C76.3275 63.5596 75.2699 60.9476 73.37 59.0068L64.6195 50.2562C63.3967 49.033 61.8858 48.137 60.226 47.6507C58.5661 47.1644 56.8106 47.1034 55.121 47.4733C58.6323 42.4169 60.5096 36.4059 60.5 30.25C60.5 13.5438 46.9562 0 30.25 0C13.5438 0 0 13.5438 0 30.25ZM55 30.25C55 33.5002 54.3598 36.7186 53.116 39.7214C51.8722 42.7242 50.0491 45.4526 47.7509 47.7509C45.4526 50.0491 42.7242 51.8722 39.7214 53.116C36.7186 54.3598 33.5002 55 30.25 55C26.9998 55 23.7814 54.3598 20.7786 53.116C17.7758 51.8722 15.0474 50.0491 12.7491 47.7509C10.4509 45.4526 8.62779 42.7242 7.38398 39.7214C6.14018 36.7186 5.5 33.5002 5.5 30.25C5.5 23.6859 8.10758 17.3906 12.7491 12.7491C17.3906 8.10758 23.6859 5.5 30.25 5.5C36.8141 5.5 43.1094 8.10758 47.7509 12.7491C52.3924 17.3906 55 23.6859 55 30.25Z" fill="var(--fill-0, black)"/>
</g>
</svg>
