<svg preserveAspectRatio="xMidYMid meet" width="100%" height="100%" overflow="visible" style="display: block;" viewBox="0 0 80 80" fill="none" xmlns="http://www.w3.org/2000/svg">
<g id="emojione-v1:eyes">
<path id="Vector" d="M79.575 40.4863C79.575 56.8988 70.6963 70.205 59.7375 70.205C48.7738 70.205 39.8813 56.9013 39.8813 40.4863C39.8813 24.0613 48.775 10.7675 59.7375 10.7675C70.7 10.7675 79.575 24.065 79.575 40.4863ZM39.6962 40.715C39.6962 57.1275 30.8188 70.4363 19.8563 70.4363C8.89625 70.4363 0 57.1313 0 40.715C0 24.29 8.89625 10.9975 19.8563 10.9975C30.82 10.9975 39.6962 24.295 39.6962 40.715Z" fill="var(--fill-0, #D1D2D3)"/>
<path id="Vector_2" d="M79.6649 37.6125C79.6649 54.025 70.7874 67.33 59.8287 67.33C48.8649 67.33 39.9724 54.0262 39.9724 37.6125C39.9724 21.1875 48.8662 7.89374 59.8287 7.89374C70.7912 7.89374 79.6649 21.1925 79.6649 37.6125Z" fill="var(--fill-0, #E7E6E6)"/>
<path id="Vector_3" d="M53.2762 51.625C58.4027 51.625 62.5587 46.5882 62.5587 40.375C62.5587 34.1618 58.4027 29.125 53.2762 29.125C48.1496 29.125 43.9937 34.1618 43.9937 40.375C43.9937 46.5882 48.1496 51.625 53.2762 51.625Z" fill="var(--fill-0, #25333A)"/>
<path id="Vector_4" d="M39.7876 37.8375C39.7876 54.25 30.9101 67.5562 19.9463 67.5562C8.98634 67.5562 0.0900879 54.2525 0.0900879 37.8375C0.0900879 21.4125 8.98634 8.12 19.9463 8.12C30.9101 8.12 39.7876 21.4175 39.7876 37.8375Z" fill="var(--fill-0, #E7E6E6)"/>
<path id="Vector_5" d="M12.3587 51.8525C17.4867 51.8525 21.6437 46.8157 21.6437 40.6025C21.6437 34.3893 17.4867 29.3525 12.3587 29.3525C7.23077 29.3525 3.07373 34.3893 3.07373 40.6025C3.07373 46.8157 7.23077 51.8525 12.3587 51.8525Z" fill="var(--fill-0, #25333A)"/>
</g>
</svg>
