<svg preserveAspectRatio="xMidYMid meet" width="100%" height="100%" overflow="visible" style="display: block;" viewBox="0 0 78.7063 88" fill="none" xmlns="http://www.w3.org/2000/svg">
<path id="Vector" d="M36.9818 0V13.9644H41.7249V0H36.9813H36.9818ZM17.6137 4.1965L13.7276 6.91739L21.7359 18.3534L25.6198 15.6325L17.6137 4.1965ZM61.092 4.1965L53.0861 15.6325L56.9707 18.3535L64.9788 6.91739L61.0927 4.1965H61.092ZM39.3524 17.7851C27.749 17.7851 18.3429 24.8312 18.3429 33.5243L30.2795 69.6738H48.4273L60.3629 33.5243C60.3629 24.8313 50.9573 17.7851 39.3535 17.7851H39.3524ZM1.62059 21.976L0 26.4357L13.1156 31.2107L14.7422 26.7532L1.6203 21.976H1.62059ZM77.0851 21.976L63.9632 26.7535L65.5843 31.2116L78.7063 26.4358L77.0851 21.976ZM14.1086 42.3633L0.6226 45.9805L1.84624 50.5588L15.3322 46.9468L14.1088 42.3633H14.1086ZM64.5971 42.3633L63.3744 46.9467L76.8604 50.5581L78.0831 45.9798L64.5971 42.3631V42.3633ZM30.0149 72.309V78.5927H48.6919V72.31H30.015L30.0149 72.309ZM30.0149 81.7164V88H48.6919V81.7174H30.015L30.0149 81.7164Z" fill="var(--fill-0, black)"/>
</svg>
