<svg preserveAspectRatio="xMidYMid meet" width="100%" height="100%" overflow="visible" style="display: block;" viewBox="0 0 64.0614 72" fill="none" xmlns="http://www.w3.org/2000/svg">
<path id="Vector" d="M36.0614 0C20.9814 0 8.82137 11.8 8.06137 26.64L0.381369 36.76C-0.578631 38 0.381369 40 2.06137 40H8.06137V52C8.06137 56.44 11.6214 60 16.0614 60H20.0614V72H48.0614V53.24C57.5414 48.76 64.0614 39.2 64.0614 28C64.0614 12.56 51.5814 0 36.0614 0ZM40.0614 44H32.0614V36H40.0614V44ZM47.0614 23.24C45.9014 24.84 44.4214 26 42.6214 26.96C41.6214 27.6 40.9414 28.28 40.5814 29.04C40.2214 29.76 40.0614 30.76 40.0614 32H32.0614C32.0614 30 32.5014 28.32 33.3014 27.28C34.0614 26.2 35.4614 25 37.5014 23.64C38.5414 23 39.3814 22.2 39.9414 21.28C40.5814 20.36 40.8614 19.28 40.8614 18C40.8614 16.8 40.5414 15.76 39.8214 15C39.1014 14.28 38.0614 13.88 36.8214 13.88C35.8594 13.8591 34.9221 14.1858 34.1814 14.8C33.4614 15.44 33.1014 16.36 33.0614 17.56H25.3414L25.3014 17.44C25.2614 14.28 26.3014 12 28.3814 10.36C30.5414 8.8 33.3414 8 36.8214 8C40.5414 8 43.4614 8.92 45.5814 10.72C47.7414 12.52 48.8214 14.96 48.8214 18C48.8214 20 48.2214 21.64 47.0614 23.24Z" fill="var(--fill-0, black)"/>
</svg>
