<svg preserveAspectRatio="xMidYMid meet" width="100%" height="100%" overflow="visible" style="display: block;" viewBox="0 0 75.4286 90.5162" fill="none" xmlns="http://www.w3.org/2000/svg">
<path id="Vector" d="M15.0857 13.2019C15.0853 10.5796 15.866 8.01654 17.3283 5.8397C18.7905 3.66286 20.8679 1.97088 23.2957 0.979544C25.7234 -0.0117887 28.3915 -0.25754 30.9594 0.273631C33.5274 0.804802 35.879 2.08882 37.7143 3.96193C39.5495 2.08882 41.9011 0.804802 44.4691 0.273631C47.0371 -0.25754 49.7051 -0.0117887 52.1329 0.979544C54.5606 1.97088 56.6381 3.66286 58.1003 5.8397C59.5625 8.01654 60.3432 10.5796 60.3429 13.2019V22.6305H69.7714C71.2718 22.6305 72.7107 23.2265 73.7716 24.2874C74.8325 25.3484 75.4286 26.7873 75.4286 28.2876V78.2591C75.4289 81.4794 74.1619 84.5705 71.9014 86.8641C69.641 89.1577 66.5687 90.4696 63.3487 90.5162H62.9942C59.7742 90.4696 56.7019 89.1577 54.4414 86.8641C52.181 84.5705 50.9139 81.4794 50.9143 78.2591V22.6305H54.6857V13.2019C54.6854 11.5774 54.1606 9.99636 53.1894 8.69409C52.2182 7.39182 50.8525 6.43791 49.2955 5.97429C47.7385 5.51067 46.0734 5.56211 44.548 6.12098C43.0226 6.67984 41.7184 7.71624 40.8295 9.07599C41.2659 10.4077 41.4874 11.8005 41.4857 13.2019V22.6305H45.2571V78.2591C45.2571 82.9998 47.0976 87.3105 50.1072 90.5162H15.0857C11.0847 90.5162 7.24762 88.9268 4.4185 86.0977C1.58938 83.2686 0 79.4315 0 75.4305V28.2876C0 26.7873 0.596018 25.3484 1.65694 24.2874C2.71786 23.2265 4.15677 22.6305 5.65714 22.6305H15.0857V13.2019ZM35.8286 13.2019C35.8286 11.2014 35.0339 9.28288 33.6193 7.86832C32.2048 6.45376 30.2862 5.65907 28.2857 5.65907C26.2852 5.65907 24.3667 6.45376 22.9521 7.86832C21.5375 9.28288 20.7429 11.2014 20.7429 13.2019V22.6305H35.8286V13.2019Z" fill="var(--fill-0, black)"/>
</svg>
