<svg preserveAspectRatio="xMidYMid meet" width="100%" height="100%" overflow="visible" style="display: block;" viewBox="0 0 88.2801 87.888" fill="none" xmlns="http://www.w3.org/2000/svg">
<path id="Vector" fill-rule="evenodd" clip-rule="evenodd" d="M64.4526 9.37296C62.2556 9.37185 60.0889 9.88549 58.1263 10.8727C56.1636 11.8599 54.4596 13.2933 53.1508 15.0578C51.8419 16.8224 50.9647 18.869 50.5895 21.0337C50.2143 23.1984 50.3515 25.4209 50.9901 27.523L51.8026 30.2105L49.8213 32.198L10.7338 71.2792C9.95473 72.0583 9.51706 73.1149 9.51706 74.2167C9.51706 75.3185 9.95473 76.3751 10.7338 77.1542C11.5129 77.9333 12.5695 78.371 13.6713 78.371C14.7731 78.371 15.8297 77.9333 16.6088 77.1542L55.6901 38.0605L57.6776 36.073L60.3651 36.8855C62.9762 37.6808 65.7624 37.6991 68.3837 36.938C71.005 36.1769 73.3482 34.6693 75.1274 32.5993C76.9065 30.5292 78.0448 27.9861 78.4033 25.2801C78.7618 22.5742 78.325 19.8224 77.1463 17.3605L67.7713 26.7417C67.3391 27.1896 66.822 27.547 66.2503 27.7929C65.6785 28.0388 65.0634 28.1684 64.4411 28.1741C63.8187 28.1798 63.2014 28.0615 62.6252 27.8261C62.049 27.5907 61.5255 27.2429 61.0851 26.803C60.6448 26.363 60.2965 25.8398 60.0605 25.2639C59.8246 24.6879 59.7057 24.0707 59.7108 23.4483C59.7159 22.8259 59.8449 22.2108 60.0903 21.6388C60.3357 21.0667 60.6926 20.5493 61.1401 20.1167L70.5151 10.7417C68.6228 9.83484 66.5509 9.37118 64.4526 9.37296ZM41.0151 23.4355C41.0155 18.6298 42.4931 13.9405 45.2478 10.0027C48.0025 6.06495 51.901 3.06915 56.4153 1.42118C60.9295 -0.22679 65.8412 -0.447265 70.485 0.789624C75.1287 2.02651 79.28 4.66098 82.3764 8.33609C85.4728 12.0112 87.3646 16.5493 87.7956 21.3356C88.2266 26.1219 87.1759 30.9249 84.7858 35.0941C82.3957 39.2632 78.7818 42.5969 74.4338 44.6435C70.0857 46.69 65.2136 47.3505 60.4776 46.5355L57.0213 49.998L62.8901 55.873L65.8276 52.9355L69.1401 49.623L72.4526 52.9355L84.1713 64.6542C85.4588 65.9029 86.485 67.3952 87.1904 69.0442C87.8957 70.6932 88.266 72.4661 88.2797 74.2596C88.2934 76.0531 87.9503 77.8314 87.2703 79.491C86.5903 81.1506 85.587 82.6584 84.3187 83.9266C83.0505 85.1949 81.5427 86.1982 79.8831 86.8782C78.2234 87.5582 76.4451 87.9014 74.6517 87.8876C72.8582 87.8739 71.0853 87.5036 69.4363 86.7983C67.7873 86.093 66.295 85.0667 65.0463 83.7792L53.3276 72.0605L50.0151 68.748L53.3276 65.4355L56.2651 62.498L50.3901 56.623L23.2338 83.7792C21.9851 85.0667 20.4929 86.093 18.8438 86.7983C17.1948 87.5036 15.4219 87.8739 13.6285 87.8876C11.835 87.9014 10.0567 87.5582 8.39704 86.8782C6.73741 86.1982 5.2296 85.1949 3.96138 83.9266C2.69316 82.6584 1.68984 81.1506 1.00982 79.491C0.329809 77.8314 -0.0133239 76.0531 0.000395742 74.2596C0.0141154 72.4661 0.384413 70.6932 1.08974 69.0442C1.79506 67.3952 2.82133 65.9029 4.10881 64.6542L31.2588 37.498L16.0151 22.248L12.1588 26.1042L8.99006 21.348L2.74006 11.973L0.608809 8.77296L3.32756 6.06046L6.45256 2.93546L9.16506 0.216713L12.3651 2.34796L21.7401 8.59796L26.4963 11.7667L22.6463 15.623L37.8901 30.873L41.3526 27.4105C41.1343 26.0966 41.0215 24.7673 41.0151 23.4355ZM69.1401 62.873L77.5463 71.2792C78.3254 72.0583 78.7631 73.1149 78.7631 74.2167C78.7631 75.3185 78.3254 76.3751 77.5463 77.1542C76.7672 77.9333 75.7106 78.371 74.6088 78.371C73.507 78.371 72.4504 77.9333 71.6713 77.1542L63.2713 68.748L69.1401 62.873Z" fill="var(--fill-0, black)"/>
</svg>
