<svg preserveAspectRatio="xMidYMid meet" width="100%" height="100%" overflow="visible" style="display: block;" viewBox="0 0 90 90" fill="none" xmlns="http://www.w3.org/2000/svg">
<g id="game-icons:thought-bubble">
<path id="Vector" d="M45 12.9569C39.6884 12.9569 35.2772 16.2697 33.8063 20.7593C32.201 19.9973 30.4299 19.5274 28.504 19.5274C21.9968 19.5274 16.7216 24.4305 16.7216 30.4784C16.7216 30.7388 16.7759 30.9754 16.795 31.2313C11.2676 33.0171 7.29529 37.8737 7.29529 43.6193C7.29529 49.7572 11.8294 54.8974 17.9499 56.3418C19.8102 58.591 22.686 59.9127 25.7383 59.9214C27.5094 59.9153 29.2461 59.4658 30.7658 58.6207C33.0172 61.1183 36.2544 62.5552 39.66 62.5684C42.576 62.565 45.3894 61.5167 47.5677 59.6219C50.3183 60.8056 53.4402 61.4342 56.6214 61.4451C61.9997 61.4397 67.0989 59.6717 70.5481 56.6164C77.4158 55.7185 82.7047 50.25 82.7047 43.6193C82.7047 37.8737 78.7324 33.0169 73.205 31.2313C73.2243 30.9754 73.2785 30.7388 73.2785 30.4784C73.2785 24.4305 68.0033 19.5273 61.4959 19.5273C59.5702 19.5273 57.799 19.9978 56.1938 20.7591C54.7228 16.2697 50.3116 12.9569 45 12.9569ZM33.0458 45.3209C34.6964 45.3209 36.0345 46.6589 36.0345 48.3095C36.0345 49.9601 34.6964 51.2981 33.0458 51.2981C31.3953 51.2981 30.0576 49.9599 30.0576 48.3095C30.0576 46.6589 31.3953 45.3211 33.0458 45.3209ZM45 45.3209C46.6506 45.3209 47.9887 46.6589 47.9887 48.3095C47.9887 49.9601 46.6506 51.2981 45 51.2981C43.3494 51.2981 42.0114 49.9601 42.0114 48.3095C42.0114 46.6589 43.3494 45.3209 45 45.3209ZM56.9542 45.3209C58.6048 45.3209 59.9425 46.6591 59.9425 48.3095C59.9425 49.9601 58.6048 51.298 56.9542 51.2981C55.3036 51.2983 53.9656 49.9601 53.9656 48.3095C53.9656 46.6589 55.3036 45.3209 56.9542 45.3209ZM9.13168 62.3071C8.62402 63.3854 9.03148 64.6522 10.048 65.1566C10.0403 65.1702 10.0327 65.1838 10.0252 65.1975C9.49853 66.3121 9.93201 67.6222 10.9936 68.1237C11.8981 68.5479 12.9911 68.2535 13.6197 67.4161C13.7398 67.4946 13.8643 67.5652 13.9931 67.6279C15.8038 68.4834 18 67.6354 18.8983 65.7338C19.7965 63.8322 18.7576 61.6288 17.2459 60.7422C14.8695 59.3491 9.66253 60.4061 9.13168 62.3071ZM15.7122 72.2864C14.7757 72.2685 13.8999 72.7118 13.4148 73.4494C12.6647 74.5893 13.0609 76.0729 14.2998 76.763C14.5569 76.9034 14.8346 77.0018 15.1227 77.0548C15.0708 78.0237 15.6104 78.9498 16.5259 79.463C17.8958 80.2261 19.6641 79.8445 20.4757 78.6109C20.7777 78.1514 20.915 77.6154 20.8689 77.0763C21.2205 76.8675 21.5165 76.5881 21.7345 76.2594C22.5287 75.0523 22.1089 73.4814 20.797 72.7507C19.7629 72.1764 18.4439 72.2834 17.5349 73.0154C17.3782 72.8676 17.2037 72.7398 17.0155 72.635C16.616 72.4141 16.1686 72.2945 15.7122 72.2864Z" fill="var(--fill-0, black)"/>
</g>
</svg>
