<svg preserveAspectRatio="xMidYMid meet" width="100%" height="100%" overflow="visible" style="display: block;" viewBox="0 0 90 90" fill="none" xmlns="http://www.w3.org/2000/svg">
<g id="twemoji:tongue">
<path id="Vector" d="M90 18.7501C90 30.0001 69.8525 47.5001 45 47.5001C20.1475 47.5001 0 30.0001 0 18.7501C0 15.0001 7.5 22.5001 45 22.5001C82.5 22.5001 90 15.0001 90 18.7501Z" fill="var(--fill-0, black)"/>
<path id="Vector_2" d="M44.9999 27.4999C29.9999 27.4999 17.4999 24.9999 17.4999 24.9999V54.9999C17.4999 70.1874 29.8124 82.4999 44.9999 82.4999C60.1874 82.4999 72.4999 70.1874 72.4999 54.9999V24.9999C72.4999 24.9999 59.9999 27.4999 44.9999 27.4999Z" fill="var(--fill-0, #EA596E)"/>
<path id="Vector_3" d="M47.5001 72.5C47.5001 73.163 47.2367 73.7989 46.7678 74.2678C46.299 74.7366 45.6631 75 45.0001 75C44.337 75 43.7011 74.7366 43.2323 74.2678C42.7635 73.7989 42.5001 73.163 42.5001 72.5V32.5C42.5001 31.837 42.7635 31.2011 43.2323 30.7322C43.7011 30.2634 44.337 30 45.0001 30C45.6631 30 46.299 30.2634 46.7678 30.7322C47.2367 31.2011 47.5001 31.837 47.5001 32.5V72.5Z" fill="var(--fill-0, #DD2E44)"/>
</g>
</svg>
