<svg preserveAspectRatio="xMidYMid meet" width="100%" height="100%" overflow="visible" style="display: block;" viewBox="0 0 106 106" fill="none" xmlns="http://www.w3.org/2000/svg">
<g id="twemoji:tongue">
<path id="Vector" d="M106 47C106 58.25 78.8525 47 54 47C29.1475 47 4 58.25 4 47C4 43.25 16.5 22 54 22C91.5 22 106 43.25 106 47Z" fill="var(--fill-0, black)"/>
<path id="Vector_2" d="M54 27C39 27 26.5 33 26.5 33V63C26.5 78.1875 38.8125 90.5 54 90.5C69.1875 90.5 81.5 78.1875 81.5 63V33C81.5 33 69 27 54 27Z" fill="var(--fill-0, #89B83F)"/>
<path id="Vector_3" d="M56.5 74.5C56.5 75.163 56.2366 75.7989 55.7678 76.2678C55.2989 76.7366 54.663 77 54 77C53.337 77 52.7011 76.7366 52.2322 76.2678C51.7634 75.7989 51.5 75.163 51.5 74.5V34.5C51.5 33.837 51.7634 33.2011 52.2322 32.7322C52.7011 32.2634 53.337 32 54 32C54.663 32 55.2989 32.2634 55.7678 32.7322C56.2366 33.2011 56.5 33.837 56.5 34.5V74.5Z" fill="var(--fill-0, #506B25)"/>
</g>
</svg>
