<svg preserveAspectRatio="xMidYMid meet" width="100%" height="100%" overflow="visible" style="display: block;" viewBox="0 0 84.48 58.1328" fill="none" xmlns="http://www.w3.org/2000/svg">
<path id="Vector" d="M37.5091 0C29.7158 0 24.3091 2.904 20.5286 7.27584C16.8643 11.5104 14.8526 16.9805 13.3637 21.8962L12.0014 26.3894H2.64C1.93983 26.3894 1.26833 26.6676 0.773239 27.1627C0.278143 27.6578 0 28.3293 0 29.0294C0 34.7107 2.62416 40.128 6.85344 42.9158L4.51968 48.576C4.08557 49.6273 3.9174 50.7693 4.03006 51.9011C4.14271 53.0329 4.53272 54.1194 5.16554 55.0645C5.79837 56.0095 6.65447 56.7839 7.65804 57.3191C8.66161 57.8544 9.78168 58.1338 10.919 58.1328H18.6437C21.3206 58.1328 23.7653 56.5805 24.9058 54.157L27.3874 48.877C34.3253 49.8379 41.3477 49.8379 48.2856 48.877L50.7672 54.157C51.913 56.5858 54.3523 58.1328 57.0293 58.1328H64.68C65.8169 58.1329 66.9363 57.8528 67.9392 57.3173C68.9421 56.7817 69.7975 56.0072 70.4297 55.0623C71.0619 54.1173 71.4514 53.0311 71.5638 51.8998C71.6762 50.7685 71.508 49.6268 71.0741 48.576L68.4499 42.2083H77.4418C81.0005 42.2083 84.48 39.4574 84.48 35.5714V31.6694C84.48 25.6661 79.2686 21.1306 73.2864 21.1306H62.3304C60.815 16.3416 58.5974 11.2253 54.8909 7.21248C50.8939 2.88816 45.2971 0 37.5091 0ZM66.9134 36.9389L63.8722 26.4106H73.2811C76.7554 26.4106 79.2 28.9714 79.2 31.6694V35.5819C79.2 36.0571 78.6086 36.9389 77.4418 36.9389H66.9134ZM53.6765 47.9424C57.1296 47.2102 60.5352 46.2387 63.8933 45.0278L66.1954 50.5982C66.2989 50.8473 66.3393 51.118 66.3129 51.3864C66.2866 51.6548 66.1944 51.9125 66.0444 52.1367C65.8944 52.3608 65.6914 52.5445 65.4534 52.6712C65.2154 52.798 64.9497 52.864 64.68 52.8634H57.024C56.7133 52.8624 56.4093 52.773 56.1475 52.6056C55.8857 52.4383 55.6769 52.1999 55.5456 51.9182L53.6765 47.9424ZM11.7058 45.0067C15.0885 46.2317 18.5187 47.212 21.9965 47.9477L20.1274 51.9182C19.9957 52.2007 19.7861 52.4396 19.5233 52.6071C19.2605 52.7745 18.9553 52.8634 18.6437 52.8634H10.919C10.6494 52.864 10.3837 52.798 10.1457 52.6712C9.90762 52.5445 9.7046 52.3608 9.55464 52.1367C9.40469 51.9125 9.31244 51.6548 9.2861 51.3864C9.25977 51.118 9.30015 50.8473 9.40368 50.5982L11.7058 45.0067ZM10.4016 31.68L8.62224 37.5725C6.99859 35.977 5.91641 33.9124 5.52816 31.6694L10.4016 31.68Z" fill="var(--fill-0, black)"/>
</svg>
