<svg preserveAspectRatio="none" width="100%" height="100%" overflow="visible" style="display: block;" viewBox="0 0 209.073 36.4" fill="none" xmlns="http://www.w3.org/2000/svg">
<g id="Group">
<path id="Vector" d="M0 0H14.0802C20.9857 0 24.8401 3.50028 24.8401 8.95954C24.8401 13.0253 22.7534 15.5498 20.1288 16.7326V16.8879C23.7141 18.0706 26.0698 20.7504 26.0698 25.4852C26.0698 31.8685 21.8926 35.938 14.6681 35.938H0V0ZM12.0973 13.5909C14.0763 13.5909 15.1485 12.4081 15.1485 10.7078C15.1485 9.00759 14.0763 7.82482 12.0973 7.82482H10.4371V13.5909H12.0973ZM12.42 27.9062C14.3991 27.9062 15.5789 26.7234 15.5789 24.6092C15.5789 22.495 14.403 21.3122 12.42 21.3122H10.441V27.9025H12.42V27.9062Z" fill="var(--fill-0, black)"/>
<path id="Vector_2" d="M26.9268 21.7779C26.9268 12.8184 32.7064 7.31105 41.7563 7.31105C51.4979 7.31105 57.1737 13.6944 55.0333 24.5574H36.8336C38.0095 27.337 40.7956 28.2647 44.0082 28.2647C47.2208 28.2647 50.1644 27.4405 52.7353 25.9472V34.5963C49.8454 35.8308 46.3638 36.3482 43.3126 36.3482C32.7141 36.3482 26.9344 30.5822 26.9344 21.7779H26.9268ZM46.3023 18.3811C45.9795 15.8566 43.9467 14.6738 41.6986 14.6738C39.1816 14.6738 37.4715 16.1154 36.7222 18.3811H46.3023Z" fill="var(--fill-0, black)"/>
<path id="Vector_3" d="M56.7971 35.5757V25.8437C58.7224 27.2335 60.2249 27.9542 61.6161 27.9542C62.6344 27.9542 63.2762 27.592 63.2762 26.7714C63.2762 26.1542 62.8496 25.5887 61.7237 24.6092L60.0636 23.0124C57.6541 20.9019 56.6895 18.6361 56.6895 15.8049C56.6895 10.3456 60.4363 7.2593 66.7539 7.2593C68.3602 7.2593 70.0741 7.46629 71.8918 7.87656V16.0119C70.2855 15.2394 69.002 14.8291 67.9836 14.8291C67.0191 14.8291 66.4849 15.1913 66.4849 15.8603C66.4849 16.3741 66.8077 16.8398 67.5571 17.4571L69.7513 19.3089C72.4798 21.6264 73.7671 23.9439 73.7671 27.1337C73.7671 33.0032 69.5899 36.4 62.8458 36.4C60.8667 36.4 58.7224 36.1413 56.7971 35.5757Z" fill="var(--fill-0, black)"/>
<path id="Vector_4" d="M85.1458 2.11052V7.66958H89.8033V15.8049H85.1458V25.0712C85.1458 26.5645 86.0027 27.1817 87.1248 27.1817C87.7666 27.1817 88.6235 26.9747 89.5343 26.6162V35.5757C88.0356 36.0378 86.2679 36.3482 84.2888 36.3482C78.4016 36.3482 75.3504 33.6205 75.3504 27.3887V2.11052H85.1458Z" fill="var(--fill-0, black)"/>
<path id="Vector_5" d="M90.6718 21.8296C90.6718 13.0253 96.7204 7.2593 105.928 7.2593C115.135 7.2593 121.13 13.0253 121.13 21.8296C121.13 30.634 115.135 36.4 105.928 36.4C96.7204 36.4 90.6718 30.634 90.6718 21.8296ZM105.928 27.0819C108.925 27.0819 110.958 24.9197 110.958 21.8296C110.958 18.7396 108.925 16.5256 105.928 16.5256C102.93 16.5256 100.79 18.6879 100.79 21.8296C100.79 24.9714 102.93 27.0819 105.928 27.0819Z" fill="var(--fill-0, black)"/>
<path id="Vector_6" d="M123.002 7.68806H131.298V10.0056H131.406C133.227 8.15378 135.529 7.27778 138.258 7.27778C141.255 7.27778 143.718 8.30902 145.271 10.2125H145.378C147.2 8.25727 149.659 7.27778 152.657 7.27778C158.279 7.27778 161.81 10.7263 161.81 16.3408V35.9565H152.069V18.9651C152.069 17.1614 151.266 16.1338 149.713 16.1338C148.161 16.1338 147.304 17.1651 147.304 18.9651V35.9565H137.562V18.9651C137.562 17.1614 136.705 16.1338 135.153 16.1338C133.6 16.1338 132.797 17.1651 132.797 18.9651V35.9565H123.002V7.68806Z" fill="var(--fill-0, black)"/>
<path id="Vector_7" d="M163.301 21.7779C163.301 12.8184 169.081 7.31105 178.131 7.31105C187.872 7.31105 193.548 13.6944 191.408 24.5574H173.208C174.384 27.337 177.17 28.2647 180.383 28.2647C183.595 28.2647 186.539 27.4405 189.11 25.9472V34.5963C186.22 35.8308 182.738 36.3482 179.687 36.3482C169.089 36.3482 163.305 30.5822 163.305 21.7779H163.301ZM182.681 18.3811C182.358 15.8566 180.325 14.6738 178.077 14.6738C175.56 14.6738 173.85 16.1154 173.101 18.3811H182.681Z" fill="var(--fill-0, black)"/>
<path id="Vector_8" d="M203.586 7.41454H209.073V16.1375H203.586V35.9232H193.802V16.1375C193.802 11.1329 198.002 7.41454 203.586 7.41454Z" fill="var(--fill-0, black)"/>
</g>
</svg>
