<svg preserveAspectRatio="none" width="100%" height="100%" overflow="visible" style="display: block;" viewBox="0 0 16 16" fill="none" xmlns="http://www.w3.org/2000/svg">
<g id="Union">
<path fill-rule="evenodd" clip-rule="evenodd" d="M8 5.88325C9.168 5.88325 10.1176 6.83299 10.1176 8.00099C10.1176 9.16897 9.16798 10.1186 8 10.1186C6.83202 10.1186 5.8824 9.16897 5.88237 8.00099C5.88237 6.83299 6.832 5.88325 8 5.88325ZM8 7.19432C7.55576 7.19432 7.19432 7.55576 7.19432 8C7.19432 8.44424 7.55576 8.80568 8 8.80568C8.44423 8.80568 8.80568 8.44423 8.80568 8C8.80568 7.55577 8.44423 7.19432 8 7.19432Z" fill="var(--fill-0, #F6D900)"/>
<path fill-rule="evenodd" clip-rule="evenodd" d="M8 2.70213C10.9214 2.70214 13.2979 5.07859 13.2979 8C13.2979 10.9214 10.9214 13.2979 8 13.2979C5.07859 13.2979 2.70213 10.9214 2.70213 8C2.70213 5.07859 5.07859 2.70213 8 2.70213ZM8 4.01507C5.80235 4.01507 4.01408 5.80334 4.01408 8.00099C4.01411 10.1986 5.80237 11.9868 8 11.9868C10.1976 11.9868 11.9859 10.1986 11.9859 8.00099C11.9859 5.80334 10.1976 4.01508 8 4.01507Z" fill="var(--fill-0, #F6D900)"/>
<path fill-rule="evenodd" clip-rule="evenodd" d="M8 0C12.4113 1.51651e-06 16 3.58871 16 8C16 12.4113 12.4113 16 8 16C3.5887 16 0 12.4113 0 8C5.09945e-08 3.58871 3.5887 0 8 0ZM8 1.31195C4.31247 1.31195 1.31195 4.31247 1.31195 8C1.31195 11.6875 4.31247 14.688 8 14.688C11.6875 14.688 14.688 11.6875 14.688 8C14.688 4.31247 11.6875 1.31195 8 1.31195Z" fill="var(--fill-0, #F6D900)"/>
</g>
</svg>
